<?xml version="1.0" encoding="UTF-8"?>
<!DOCTYPE svg PUBLIC "-//W3C//DTD SVG 1.1//EN" "http://www.w3.org/Graphics/SVG/1.1/DTD/svg11.dtd">
<!-- Creator: CorelDRAW 2021.5 -->
<svg xmlns="http://www.w3.org/2000/svg" xml:space="preserve" width="1650mm" height="1000mm" version="1.1" style="shape-rendering:geometricPrecision; text-rendering:geometricPrecision; image-rendering:optimizeQuality; fill-rule:evenodd; clip-rule:evenodd"
viewBox="0 0 165000 100000"
 xmlns:xlink="http://www.w3.org/1999/xlink"
 xmlns:xodm="http://www.corel.com/coreldraw/odm/2003">
 <defs>
  <style type="text/css">
   <![CDATA[
    .fil0 {fill:black}
   ]]>
  </style>
 </defs>
 <g id="Layer_x0020_1">
  <metadata id="CorelCorpID_0Corel-Layer"/>
  <path class="fil0" d="M72814.42 55292.76c59.34,-201.35 137.33,-385.26 241.43,-544.32 935.93,-1430.07 4084.72,-778.59 2421.28,-1250.84 -1663.43,-472.24 -3348.08,-535.34 -4284,894.73 -659.86,1008.23 -1310.46,3375.14 -945.7,4617.83 301.11,1393.71 1540.78,2438.08 3024.59,2438.08 1709.1,0 3094.61,-1385.5 3094.61,-3094.61 0,-1709.11 -1385.51,-3094.61 -3094.61,-3094.61 -155.49,0 -308.26,11.61 -457.6,33.74z"/>
  <path class="fil0" d="M79416.26 55395.91c59.33,-201.35 137.33,-385.26 241.43,-544.32 935.92,-1430.06 4084.72,-778.59 2421.28,-1250.84 -1663.43,-472.24 -3348.08,-535.33 -4284,894.73 -659.86,1008.23 -1310.46,3375.14 -945.7,4617.83 301.11,1393.71 1540.78,2438.08 3024.58,2438.08 1709.11,0 3094.62,-1385.5 3094.62,-3094.61 0,-1709.1 -1385.51,-3094.61 -3094.62,-3094.61 -155.49,0 -308.25,11.61 -457.59,33.74z"/>
 </g>
</svg>
